<?xml version="1.0" encoding="UTF-8"?>
<svg width="13px" height="20px" viewBox="0 0 13 20" version="1.1" xmlns="http://www.w3.org/2000/svg" xmlns:xlink="http://www.w3.org/1999/xlink">
    <!-- Generator: Sketch 46 (44423) - http://www.bohemiancoding.com/sketch -->
    <title>currency_rupee_FILL1_wght400_GRAD0_opsz24</title>
    <desc>Created with Sketch.</desc>
    <defs></defs>
    <g id="Page-1" stroke="none" stroke-width="1" fill="none" fill-rule="evenodd">
        <g id="M-Landing-Page" transform="translate(-181.000000, -4120.000000)" fill-rule="nonzero" fill="#B08964">
            <g id="Group-39" transform="translate(24.000000, 3970.000000)">
                <g id="Group-30" transform="translate(14.000000, 130.000000)">
                    <g id="Group-14" transform="translate(13.000000, 0.000000)">
                        <g id="Group-2" transform="translate(106.000000, 0.000000)">
                            <g id="currency_rupee_FILL1_wght400_GRAD0_opsz24" transform="translate(24.000000, 20.000000)">
                                <path d="M8.36875,20 L1.08333333,12.2222222 L1.08333333,10 L4.875,10 C5.83194444,10 6.65798611,9.68055556 7.353125,9.04166667 C8.04826389,8.40277778 8.46805556,7.61111111 8.6125,6.66666667 L0,6.66666667 L0,4.44444444 L8.2875,4.44444444 C7.98055556,3.7962963 7.52465278,3.26388889 6.91979167,2.84722222 C6.31493056,2.43055556 5.63333333,2.22222222 4.875,2.22222222 L0,2.22222222 L0,0 L13,0 L13,2.22222222 L9.47916667,2.22222222 C9.73194444,2.53703704 9.95763889,2.87962963 10.15625,3.25 C10.3548611,3.62037037 10.5083333,4.01851852 10.6166667,4.44444444 L13,4.44444444 L13,6.66666667 L10.80625,6.66666667 C10.6618056,8.24074074 10.0298611,9.56018519 8.91041667,10.625 C7.79097222,11.6898148 6.44583333,12.2222222 4.875,12.2222222 L4.08958333,12.2222222 L11.375,20 L8.36875,20 Z" id="Shape"></path>
                            </g>
                        </g>
                    </g>
                </g>
            </g>
        </g>
    </g>
</svg>