<?xml version="1.0" encoding="UTF-8"?>
<svg width="17px" height="16px" viewBox="0 0 17 16" version="1.1" xmlns="http://www.w3.org/2000/svg" xmlns:xlink="http://www.w3.org/1999/xlink">
    <!-- Generator: Sketch 46 (44423) - http://www.bohemiancoding.com/sketch -->
    <title>Shape</title>
    <desc>Created with Sketch.</desc>
    <defs></defs>
    <g id="Page-1" stroke="none" stroke-width="1" fill="none" fill-rule="evenodd">
        <g id="M-Landing-Page" transform="translate(-179.000000, -4344.000000)" fill-rule="nonzero" fill="#B08964">
            <g id="Group-39" transform="translate(24.000000, 3970.000000)">
                <g id="Group-30" transform="translate(14.000000, 130.000000)">
                    <g id="Group-15" transform="translate(13.000000, 222.000000)">
                        <g id="Group-2-Copy" transform="translate(106.000000, 0.000000)">
                            <path d="M23.7777778,38 C23.2888889,38 22.8703704,37.8259259 22.5222222,37.4777778 C22.1740741,37.1296296 22,36.7111111 22,36.2222222 L22,23.7777778 C22,23.2888889 22.1740741,22.8703704 22.5222222,22.5222222 C22.8703704,22.1740741 23.2888889,22 23.7777778,22 L36.2222222,22 C36.7111111,22 37.1296296,22.1740741 37.4777778,22.5222222 C37.8259259,22.8703704 38,23.2888889 38,23.7777778 L30.8888889,23.7777778 C29.837037,23.7777778 28.9814815,24.1074074 28.3222222,24.7666667 C27.662963,25.4259259 27.3333333,26.2814815 27.3333333,27.3333333 L27.3333333,32.6666667 C27.3333333,33.7185185 27.662963,34.5740741 28.3222222,35.2333333 C28.9814815,35.8925926 29.837037,36.2222222 30.8888889,36.2222222 L38,36.2222222 C38,36.7111111 37.8259259,37.1296296 37.4777778,37.4777778 C37.1296296,37.8259259 36.7111111,38 36.2222222,38 L23.7777778,38 Z M30.8181818,35 C30.3181818,35 29.8901515,34.82375 29.5340909,34.47125 C29.1780303,34.11875 29,33.695 29,33.2 L29,27.8 C29,27.305 29.1780303,26.88125 29.5340909,26.52875 C29.8901515,26.17625 30.3181818,26 30.8181818,26 L37.1818182,26 C37.6818182,26 38.1098485,26.17625 38.4659091,26.52875 C38.8219697,26.88125 39,27.305 39,27.8 L39,33.2 C39,33.695 38.8219697,34.11875 38.4659091,34.47125 C38.1098485,34.82375 37.6818182,35 37.1818182,35 L30.8181818,35 Z M33.5,32 C33.9333333,32 34.2916667,31.8583333 34.575,31.575 C34.8583333,31.2916667 35,30.9333333 35,30.5 C35,30.0666667 34.8583333,29.7083333 34.575,29.425 C34.2916667,29.1416667 33.9333333,29 33.5,29 C33.0666667,29 32.7083333,29.1416667 32.425,29.425 C32.1416667,29.7083333 32,30.0666667 32,30.5 C32,30.9333333 32.1416667,31.2916667 32.425,31.575 C32.7083333,31.8583333 33.0666667,32 33.5,32 Z" id="Shape"></path>
                        </g>
                    </g>
                </g>
            </g>
        </g>
    </g>
</svg>