<?xml version="1.0" encoding="UTF-8"?>
<svg width="18px" height="12px" viewBox="0 0 18 12" version="1.1" xmlns="http://www.w3.org/2000/svg" xmlns:xlink="http://www.w3.org/1999/xlink">
    <!-- Generator: Sketch 46 (44423) - http://www.bohemiancoding.com/sketch -->
    <title>universal_currency_alt_FILL1_wght400_GRAD0_opsz24</title>
    <desc>Created with Sketch.</desc>
    <defs></defs>
    <g id="Page-1" stroke="none" stroke-width="1" fill="none" fill-rule="evenodd">
        <g id="M-Landing-Page" transform="translate(-178.000000, -4568.000000)" fill-rule="nonzero" fill="#B08964">
            <g id="Group-39" transform="translate(24.000000, 3970.000000)">
                <g id="Group-30" transform="translate(14.000000, 130.000000)">
                    <g id="Group-16" transform="translate(0.000000, 444.000000)">
                        <g id="Group-2-Copy-2" transform="translate(119.000000, 0.000000)">
                            <g id="universal_currency_alt_FILL1_wght400_GRAD0_opsz24" transform="translate(21.000000, 24.000000)">
                                <path d="M11.7,9.42857143 L15.3,9.42857143 L15.3,6 L13.95,6 L13.95,8.14285714 L11.7,8.14285714 L11.7,9.42857143 Z M9,8.57142857 C9.75,8.57142857 10.3875,8.32142857 10.9125,7.82142857 C11.4375,7.32142857 11.7,6.71428571 11.7,6 C11.7,5.28571429 11.4375,4.67857143 10.9125,4.17857143 C10.3875,3.67857143 9.75,3.42857143 9,3.42857143 C8.25,3.42857143 7.6125,3.67857143 7.0875,4.17857143 C6.5625,4.67857143 6.3,5.28571429 6.3,6 C6.3,6.71428571 6.5625,7.32142857 7.0875,7.82142857 C7.6125,8.32142857 8.25,8.57142857 9,8.57142857 Z M2.7,6 L4.05,6 L4.05,3.85714286 L6.3,3.85714286 L6.3,2.57142857 L2.7,2.57142857 L2.7,6 Z M0,12 L0,0 L18,0 L18,12 L0,12 Z" id="Shape"></path>
                            </g>
                        </g>
                    </g>
                </g>
            </g>
        </g>
    </g>
</svg>